<svg width="20" height="20" viewBox="0 0 20 20" fill="none" xmlns="http://www.w3.org/2000/svg">
<path d="M9.03485 6.45238L12.954 2.5332L17.4661 7.04531L13.547 10.9645L11.291 8.70836L9.03485 6.45238Z" fill="black"/>
<path d="M14.9972 12.6463L19.1482 8.49519L19.1485 8.4947L19.246 8.39716C19.3098 8.33356 19.3932 8.30176 19.477 8.30176C19.5606 8.30176 19.6442 8.33356 19.7078 8.39716L19.9037 8.59306C20.0309 8.72026 20.0309 8.92747 19.9037 9.05484L15.5568 13.4017C15.4296 13.5286 15.2226 13.5289 15.095 13.4017L14.8991 13.2058C14.7719 13.0786 14.7719 12.8714 14.8991 12.7442L14.9972 12.6463Z" fill="black"/>
<path d="M17.6982 7.27646L18.8006 8.37891L14.8815 12.298L13.779 11.1956L17.6982 7.27646Z" fill="black"/>
<path d="M11.5044 0.850784L11.5039 0.851112L7.35293 5.00209L7.2549 5.10011C7.12753 5.22716 6.92066 5.22716 6.79329 5.10011L6.59739 4.90422C6.47018 4.77701 6.47018 4.56981 6.59739 4.44244L10.9441 0.0954058C11.0079 0.031802 11.0915 0 11.1752 0C11.2588 0 11.3424 0.031802 11.406 0.0954058L11.6019 0.291299C11.7291 0.418507 11.7291 0.625712 11.6019 0.753083L11.5044 0.850784Z" fill="black"/>
<path d="M11.6198 1.19882L12.7222 2.30127L8.8031 6.22041L7.70065 5.11796L11.6198 1.19882Z" fill="black"/>
<path d="M6.87619 12.466L7.53377 13.1235L7.32084 13.3365L6.66326 12.6789L6.87619 12.466Z" fill="black"/>
<path d="M0.320643 18.1315L6.87578 11.5762L8.42293 13.1233L1.86763 19.6785C1.66091 19.8852 1.38617 19.9989 1.09405 19.9989C0.801771 19.9989 0.527192 19.8852 0.320479 19.6785C0.113767 19.4717 9.53674e-07 19.1972 9.53674e-07 18.9049C0.000164986 18.6129 0.113931 18.3382 0.320643 18.1315ZM6.31515 12.7946L7.20462 13.6841C7.23658 13.7161 7.27855 13.7321 7.32051 13.7321C7.36248 13.7321 7.40444 13.7161 7.43641 13.6841L7.88115 13.2394C7.94524 13.1753 7.94524 13.0717 7.88115 13.0076L6.99168 12.1181C6.92758 12.054 6.82398 12.054 6.75988 12.1181L6.31515 12.5629C6.25122 12.6268 6.25122 12.7306 6.31515 12.7946ZM0.649318 19.3498C0.843408 19.5439 1.13667 19.6026 1.3906 19.498C1.53879 19.3498 1.68714 19.2014 1.83533 19.0532L0.945862 18.1638L0.501127 18.6085C0.396542 18.8624 0.455227 19.1557 0.649318 19.3498Z" fill="black"/>
<path d="M10.5821 8.46317L11.5365 9.41748L8.35858 12.5954L7.40426 11.641L10.5821 8.46317Z" fill="black"/>
</svg>
