<svg xmlns="http://www.w3.org/2000/svg" width="22" height="19" viewBox="0 0 22 19" fill="none">
  <path fill-rule="evenodd" clip-rule="evenodd" d="M21.129 15.4249H12.3475V18.1364H16.9938C17.2326 18.1364 17.4267 18.3305 17.4267 18.5693C17.4267 18.8081 17.2326 19 16.9938 19H4.13519C3.89641 19 3.70226 18.8081 3.70226 18.5693C3.70226 18.3305 3.89641 18.1364 4.13519 18.1364H8.78142V15.4249H7.89918e-07V12.9479H21.129V15.4249ZM0 12.0842V0H21.129V12.0842H0ZM3.39429 2.62661H8.26815C8.50693 2.62661 8.70108 2.81853 8.70108 3.05732V9.38619C8.70108 9.62497 8.50693 9.81912 8.26815 9.81912H3.39429C3.15551 9.81912 2.96136 9.62497 2.96136 9.38619V3.05732C2.96136 2.81853 3.15551 2.62661 3.39429 2.62661ZM7.83744 3.49025H3.82499V8.95548H7.83744V3.49025ZM17.5494 8.95548C17.7882 8.95548 17.9824 9.14963 17.9824 9.38619C17.9824 9.62497 17.7882 9.81912 17.5494 9.81912H13.7557C13.5169 9.81912 13.3228 9.62497 13.3228 9.38619C13.3228 9.14963 13.5169 8.95548 13.7557 8.95548H17.5494ZM17.5494 5.86246C17.7882 5.86246 17.9824 6.05438 17.9824 6.29316C17.9824 6.53195 17.7882 6.7261 17.5494 6.7261H11.9012C11.6624 6.7261 11.4705 6.53195 11.4705 6.29316C11.4705 6.05438 11.6624 5.86246 11.9012 5.86246H17.5494ZM17.5494 2.76944C17.7882 2.76944 17.9824 2.96136 17.9824 3.20014C17.9824 3.43892 17.7882 3.63307 17.5494 3.63307H10.7229C10.4864 3.63307 10.2922 3.43892 10.2922 3.20014C10.2922 2.96136 10.4864 2.76944 10.7229 2.76944H17.5494Z" fill="black"/>
</svg>