<svg xmlns="http://www.w3.org/2000/svg" width="20" height="21" viewBox="0 0 20 21" fill="none">
  <path fill-rule="evenodd" clip-rule="evenodd" d="M0 20.841V0H19.1319V20.841H0ZM3.07347 2.37835H7.48665C7.70286 2.37835 7.87866 2.55213 7.87866 2.76834V8.49902C7.87866 8.71523 7.70286 8.89103 7.48665 8.89103H3.07347C2.85725 8.89103 2.68145 8.71523 2.68145 8.49902V2.76834C2.68145 2.55213 2.85725 2.37835 3.07347 2.37835ZM7.09666 3.16036H3.46346V8.10902H7.09666V3.16036ZM15.8907 8.10902C16.1069 8.10902 16.2827 8.28482 16.2827 8.49902C16.2827 8.71523 16.1069 8.89103 15.8907 8.89103H12.4555C12.2393 8.89103 12.0635 8.71523 12.0635 8.49902C12.0635 8.28482 12.2393 8.10902 12.4555 8.10902H15.8907ZM15.8907 5.30835C16.1069 5.30835 16.2827 5.48213 16.2827 5.69834C16.2827 5.91455 16.1069 6.09035 15.8907 6.09035H10.7763C10.5601 6.09035 10.3863 5.91455 10.3863 5.69834C10.3863 5.48213 10.5601 5.30835 10.7763 5.30835H15.8907ZM15.8907 2.50767C16.1069 2.50767 16.2827 2.68145 16.2827 2.89767C16.2827 3.11388 16.1069 3.28968 15.8907 3.28968H9.70941C9.49522 3.28968 9.31942 3.11388 9.31942 2.89767C9.31942 2.68145 9.49522 2.50767 9.70941 2.50767H15.8907Z" fill="#1F1C1C"/>
  <path d="M2.23242 11.9204C2.23242 11.6443 2.45628 11.4204 2.73242 11.4204H15.7324C16.0086 11.4204 16.2324 11.6443 16.2324 11.9204C16.2324 12.1966 16.0086 12.4204 15.7324 12.4204H2.73242C2.45628 12.4204 2.23242 12.1966 2.23242 11.9204Z" fill="#DEE7F2"/>
  <path d="M2.23242 14.9204C2.23242 14.6443 2.45628 14.4204 2.73242 14.4204H15.7324C16.0086 14.4204 16.2324 14.6443 16.2324 14.9204C16.2324 15.1966 16.0086 15.4204 15.7324 15.4204H2.73242C2.45628 15.4204 2.23242 15.1966 2.23242 14.9204Z" fill="#DEE7F2"/>
  <path d="M2.23242 17.9204C2.23242 17.6443 2.45628 17.4204 2.73242 17.4204H15.7324C16.0086 17.4204 16.2324 17.6443 16.2324 17.9204C16.2324 18.1966 16.0086 18.4204 15.7324 18.4204H2.73242C2.45628 18.4204 2.23242 18.1966 2.23242 17.9204Z" fill="#DEE7F2"/>
</svg>